name C:\Users\antoi\Documents\MyRepositories\upper-imu-dc\Results\main_tracking\Case_76\FLX01_angularVelocities_bodyFrame.mot
datacolumns 4
datarows 47
range 2.01000000 2.47000000
endheader 
time	radius_imu_x	radius_imu_y	radius_imu_z	
          2.01000000	         -1.00411858	          0.51986360	         -0.70943284	
          2.02000000	         -0.99526794	          0.52683451	         -0.71405963	
          2.03000000	         -0.98657713	          0.53205560	         -0.71737058	
          2.04000000	         -0.97805289	          0.53532016	         -0.71942927	
          2.05000000	         -0.96970007	          0.53650121	         -0.72031926	
          2.06000000	         -0.96152703	          0.53556654	         -0.72014269	
          2.07000000	         -0.95354872	          0.53259541	         -0.71901924	
          2.08000000	         -0.94578698	          0.52779156	         -0.71708616	
          2.09000000	         -0.93826815	          0.52148660	         -0.71449902	
          2.10000000	         -0.93101861	          0.51412917	         -0.71143160	
          2.11000000	         -0.92405932	          0.50625763	         -0.70807333	
          2.12000000	         -0.91740033	          0.49845671	         -0.70462299	
          2.13000000	         -0.91103648	          0.49130187	         -0.70127939	
          2.14000000	         -0.90494526	          0.48530023	         -0.69823139	
          2.15000000	         -0.89908734	          0.48084157	         -0.69564968	
          2.16000000	         -0.89340955	          0.47817153	         -0.69368159	
          2.17000000	         -0.88784925	          0.47739036	         -0.69244782	
          2.18000000	         -0.88233848	          0.47847020	         -0.69203923	
          2.19000000	         -0.87680716	          0.48128036	         -0.69251281	
          2.20000000	         -0.87118521	          0.48561232	         -0.69388709	
          2.21000000	         -0.86540355	          0.49120174	         -0.69613897	
          2.22000000	         -0.85939480	          0.49775004	         -0.69920421	
          2.23000000	         -0.85309353	          0.50494938	         -0.70298329	
          2.24000000	         -0.84643608	          0.51251082	         -0.70735242	
          2.25000000	         -0.83935909	          0.52018989	         -0.71217695	
          2.26000000	         -0.83179705	          0.52780333	         -0.71732390	
          2.27000000	         -0.82367947	          0.53523367	         -0.72267042	
          2.28000000	         -0.81492946	          0.54242094	         -0.72810682	
          2.29000000	         -0.80546500	          0.54934324	         -0.73353456	
          2.30000000	         -0.79520373	          0.55599012	         -0.73886119	
          2.31000000	         -0.78407089	          0.56233411	         -0.74399375	
          2.32000000	         -0.77200886	          0.56830575	         -0.74883336	
          2.33000000	         -0.75898669	          0.57377827	         -0.75327235	
          2.34000000	         -0.74500781	          0.57856743	         -0.75719551	
          2.35000000	         -0.73011444	          0.58244803	         -0.76048585	
          2.36000000	         -0.71438764	          0.58518264	         -0.76303373	
          2.37000000	         -0.69794350	          0.58655423	         -0.76474695	
          2.38000000	         -0.68092728	          0.58639613	         -0.76555911	
          2.39000000	         -0.66350736	          0.58461429	         -0.76543416	
          2.40000000	         -0.64587000	          0.58119825	         -0.76436614	
          2.41000000	         -0.62821452	          0.57621959	         -0.76237487	
          2.42000000	         -0.61074802	          0.56982005	         -0.75949958	
          2.43000000	         -0.59367913	          0.56219314	         -0.75579276	
          2.44000000	         -0.57721062	          0.55356226	         -0.75131529	
          2.45000000	         -0.56153149	          0.54415737	         -0.74613362	
          2.46000000	         -0.54680909	          0.53419209	         -0.74031839	
          2.47000000	         -0.53318199	          0.52384328	         -0.73394420	
